<?xml version="1.0" encoding="UTF-8" standalone="no"?>
<!-- Created with Inkscape (http://www.inkscape.org/) -->

<svg
   version="1.1"
   id="svg1"
   width="4012.4082"
   height="3761.6328"
   viewBox="0 0 4012.4082 3761.6328"
   sodipodi:docname="vectorised-White.svg"
   inkscape:version="1.4.2 (f4327f4, 2025-05-13)"
   xmlns:inkscape="http://www.inkscape.org/namespaces/inkscape"
   xmlns:sodipodi="http://sodipodi.sourceforge.net/DTD/sodipodi-0.dtd"
   xmlns="http://www.w3.org/2000/svg"
   xmlns:svg="http://www.w3.org/2000/svg">
  <defs
     id="defs1" />
  <sodipodi:namedview
     id="namedview1"
     pagecolor="#505050"
     bordercolor="#eeeeee"
     borderopacity="1"
     inkscape:showpageshadow="0"
     inkscape:pageopacity="0"
     inkscape:pagecheckerboard="0"
     inkscape:deskcolor="#505050"
     inkscape:zoom="0.1516988"
     inkscape:cx="1710.6266"
     inkscape:cy="1657.8905"
     inkscape:window-width="1280"
     inkscape:window-height="729"
     inkscape:window-x="-8"
     inkscape:window-y="1072"
     inkscape:window-maximized="1"
     inkscape:current-layer="g1" />
  <g
     inkscape:groupmode="layer"
     inkscape:label="Image"
     id="g1">
    <path
       style="fill:#ffffff;fill-opacity:1"
       d="m 1846.1847,3449.0211 c -65.4796,-3.3963 -118.5001,-9.1813 -197.1971,-21.5157 -93.2018,-14.6079 -184.1736,-37.4074 -266.1618,-66.7058 -18.3183,-6.5461 -40.3592,-14.4113 -48.9796,-17.4783 -56.4072,-20.0685 -89.9058,-34.7798 -174.3673,-76.5753 -52.6414,-26.0494 -76.5634,-39.3678 -118.5306,-65.9908 -13.4694,-8.5447 -37.7143,-23.7959 -53.87763,-33.8916 -37.1949,-23.2323 -44.6497,-28.7653 -147.70963,-109.631 -60.1899,-47.228 -179.20186,-164.6176 -232.37202,-229.2046 -4.3102,-5.2357 -15.35057,-18.6228 -24.53415,-29.7493 -42.54182,-51.5417 -74.73191,-97.1974 -116.48284,-165.2094 -10.58373,-17.2408 -21.60457,-34.8735 -24.49076,-39.1837 -27.29797,-40.7665 -95.83845,-185.8461 -114.30963,-241.9592 -3.72441,-11.3143 -8.29817,-24.0979 -10.16391,-28.4081 -10.47808,-24.2064 -42.5453,-135.6736 -54.9533,-191.0204 -12.59824,-56.1954 -25.02106,-138.0056 -32.5763,-214.5307 -3.99475,-40.4616 -4.45299,-55.6602 -4.48939,-148.8979 -0.0503,-128.7112 2.95259,-175.5877 16.8173,-262.5307 25.56559,-160.3168 64.81139,-293.0778 130.02122,-439.8367 54.62094,-122.928 143.63844,-267.086 226.23153,-366.3673 10.30888,-12.3919 22.38162,-27.3796 26.82829,-33.3062 22.0345,-29.3676 125.27191,-134.6949 171.16316,-174.6281 34.5581,-30.0713 94.23643,-78.3168 114.61233,-92.6553 7.5428,-5.308 17.6816,-12.9077 22.5306,-16.8883 4.849,-3.9806 14.1932,-10.6581 20.765,-14.839 6.5719,-4.1808 15.3882,-10.0852 19.5919,-13.1209 14.0065,-10.11459 54.33693,-35.74483 82.09213,-52.17003 15.0857,-8.92755 31.1285,-18.79616 35.6506,-21.93025 11.8152,-8.18852 107.4486,-56.60121 136.8822,-69.2942 13.7145,-5.91423 25.9301,-11.57863 27.1457,-12.58755 2.8341,-2.35203 74.2309,-30.92292 103.3032,-41.33884 12.2335,-4.38298 36.6559,-12.37467 54.272,-17.75933 17.616,-5.38466 35.2487,-11.02087 39.1836,-12.52492 25.499,-9.74643 169.0686,-40.443128 220.2748,-47.097058 13.1675,-1.71104 27.6516,-3.93637 32.1869,-4.94516 4.5352,-1.0088 39.8005,-4.48114 78.3673,-7.71632 64.5064,-5.41112 77.1811,-5.88205 158.2847,-5.88105 66.919,8.2e-4 92.176,0.66993 104.8163,2.7768 9.1592,1.52665 25.0286,3.32523 35.2653,3.99685 28.4083,1.86384 75.0356,6.65512 97.9592,10.06602 55.2376,8.21902 180.3996,34.831528 207.1549,44.046218 6.2117,2.13937 16.6348,5.13005 23.1623,6.64596 29.6593,6.88792 121.9975,39.86911 183.689,65.60967 18.6439,7.77909 114.5167,55.4602 148.2795,73.74489 19.1683,10.38082 69.7964,40.36434 101.8776,60.335 19.1537,11.92325 99.4198,68.5694 113.7949,80.3084 2.7831,2.2727 12.0402,9.7251 20.5714,16.5609 53.2324,42.6533 111.6598,94.7646 146.3263,130.5082 20.4301,21.0649 16.5228,17.1242 40.8768,41.2264 21.9788,21.7516 64.2807,70.1151 98.5337,112.6531 74.7392,92.8168 171.289,248.9837 208.49,337.2274 4.2581,10.1004 13.1492,30.7073 19.7581,45.793 15.7857,36.0333 38.4834,93.7023 41.2541,104.8163 1.2088,4.849 8.691,28.6531 16.6271,52.898 22.8837,69.9099 32.4651,106.3629 46.8615,178.2857 13.9558,69.7223 25.7233,159.9966 30.514,234.089 2.5861,39.996 2.595,139.3729 0.016,181.2579 -6.3904,103.794 -13.1184,160.9083 -27.6946,235.1021 -11.7849,59.9862 -36.9912,159.5622 -46.6183,184.1633 -3.1625,8.0816 -7.6304,21.3061 -9.9286,29.3877 -8.7964,30.9327 -26.4725,78.4105 -51.788,139.1021 -19.2733,46.2058 -48.6251,102.9275 -89.5301,173.0148 -52.4158,89.8102 -99.3915,155.0479 -178.7281,248.2097 -32.941,38.6812 -138.8688,145.1681 -173.3153,174.2299 -53.0041,44.7186 -92.658,75.7552 -145.2865,113.714 -26.6833,19.2455 -72.1321,48.5791 -101.8776,65.7539 -5.9265,3.4219 -24,13.9463 -40.1632,23.3874 -52.2845,30.54 -151.659,78.2237 -210.3182,100.9188 -93.9017,36.3302 -159.6339,57.8329 -218.4852,71.4723 -17.0991,3.9629 -33.4093,8.1065 -36.2449,9.208 -2.8357,1.1015 -12.6497,3.191 -21.8089,4.6433 -33.7099,5.3452 -74.2348,12.4604 -81.5842,14.3243 -4.1573,1.0543 -12.8484,2.4742 -19.3138,3.1553 -6.4653,0.6812 -16.1632,2.0759 -21.551,3.0994 -5.3877,1.0234 -24.7837,3.181 -43.102,4.7946 -18.3184,1.6136 -38.1551,3.9151 -44.0817,5.1146 -13.2979,2.6913 -176.121,3.9734 -219.4166,1.7278 z m 1018.9405,-475.7653 c 2.8497,-3.5193 3.2705,-46.45 4.5715,-466.4458 0.788,-254.4134 0.788,-788.3118 -2e-4,-1186.441 -1.3081,-660.7597 -1.7057,-723.8909 -4.56,-724.0968 -7.6449,-0.5516 -12.3561,1.4762 -34.6681,14.9221 -13.0374,7.8567 -26.7027,15.8037 -30.3674,17.66 -3.6646,1.8562 -15.4792,8.9844 -26.2547,15.8404 -27.7902,17.6815 -72.5748,44.3016 -113.6327,67.5435 -19.3959,10.9795 -66.5633,38.6681 -104.8163,61.5302 -38.2531,22.862 -75.1062,44.4919 -81.8958,48.0664 -6.7897,3.5745 -15.7008,9.756 -19.8026,13.7366 l -7.4577,7.2375 -1.2213,469.9873 c -0.6717,258.4931 -1.9312,473.5139 -2.7989,477.8241 l -1.5776,7.8367 -9.7251,-0.3116 c -6.3156,-0.2024 -20.3717,-4.1976 -40.0925,-11.3956 -16.702,-6.0962 -45.3551,-14.9868 -63.6734,-19.7569 -54.6643,-14.2345 -76.7882,-12.5733 -154.0566,11.5673 -73.5741,22.9864 -77.54,21.9539 -102.1188,-26.5863 -15.2054,-30.0288 -18.1576,-40.0415 -22.1096,-74.9863 -6.7831,-59.9786 -12.386,-179.7688 -8.9802,-192 2.8227,-10.1372 2.8214,-29.4272 0,-34.9043 -1.2134,-2.3536 -6.5433,-9.3252 -11.8442,-15.4924 -11.8152,-13.746 -15.3097,-20.2188 -15.3253,-28.3869 -0.015,-7.6053 -4.1848,-19.233 -21.6328,-60.3184 -7.3217,-17.2408 -19.0226,-45.0123 -26.002,-61.7143 -10.9123,-26.114 -13.3367,-30.4466 -17.309,-30.9328 -4.0383,-0.4943 -5.2853,1.1076 -9.9139,12.7347 -16.4747,41.3845 -33.6281,82.262 -41.5892,99.1092 -4.9893,10.5583 -10.893,26.8664 -13.1193,36.2404 -3.9054,16.444 -5.7519,20.0781 -21.4414,42.1992 -6.2968,8.8782 -6.676,10.2932 -6.0368,22.5306 3.2445,62.1185 -6.2753,214.3446 -15.6417,250.1187 -2.8497,10.8842 -8.4315,19.4568 -22.3604,34.3412 -6.5829,7.0347 -15.3147,19.1571 -19.4039,26.9388 -7.4118,14.1048 -7.4601,14.1486 -15.5969,14.1486 -13.4171,0 -30.013,-5.3 -57.9648,-18.5113 -25.4641,-12.0355 -69.5153,-27.4961 -95.9196,-33.6649 -27.8448,-6.5054 -67.7352,-2.3852 -102.9376,10.6323 -26.8074,9.913 -73.6603,27.7007 -91.6053,34.7778 -18.6806,7.3672 -23.3723,8.1084 -26.6125,4.2042 -1.5073,-1.8162 -2.5259,-139.5723 -3.4995,-473.2647 l -1.3733,-470.7028 -8.9853,-7.6859 c -4.9419,-4.2273 -21.0669,-14.3594 -35.8334,-22.5158 -14.7664,-8.1564 -37.2481,-21.51 -49.9592,-29.6747 -32.0462,-20.5841 -65.0987,-40.2912 -98.5396,-58.7529 -15.6245,-8.6258 -46.0408,-26.6826 -67.5919,-40.1263 -21.551,-13.4436 -54.6122,-33.3136 -73.4694,-44.1556 -18.8571,-10.842 -43.9098,-25.5512 -55.6726,-32.6871 -26.68843,-16.1905 -29.35183,-16.4045 -33.46173,-2.6887 -5.0593,16.8846 -6.8317,44.8776 -4.8687,76.898 0.9909,16.1633 2.6565,44.3755 3.7014,62.6939 1.1907,20.874 1.8048,441.0064 1.6453,1125.551 -0.2216,950.8417 0.1135,1093.0059 2.5882,1098.1225 2.8168,5.8238 3.0306,5.8901 23.39423,7.2529 37.5203,2.511 57.4794,-3.0791 94.2742,-26.4039 5.7872,-3.6686 21.9834,-12.6715 35.9916,-20.0064 36.4174,-19.0689 68.804,-36.8433 140.0816,-76.8793 21.0123,-11.8024 57.0499,-31.5183 80.0837,-43.8132 25.596,-13.6624 43.1167,-24.2274 45.0612,-27.172 2.8972,-4.387 3.1817,-28.8257 3.1817,-273.3061 0,-213.1221 0.5118,-269.3837 2.4823,-272.83 3.3657,-5.8867 11.3942,-7.5171 49.436,-10.0392 17.7796,-1.1788 41.1429,-3.434 51.9184,-5.0117 11.9317,-1.7469 51.3814,-3.7111 100.8979,-5.0236 44.7184,-1.1853 98.498,-3.0011 119.5103,-4.0352 39.0724,-1.9229 173.7072,-5.0707 284.0816,-6.6421 59.6369,-0.849 60.824,-0.7943 35.2653,1.6254 -25.4884,2.413 -23.2114,2.5153 62.6939,2.8162 49.0285,0.1718 95.3143,0.7171 102.8571,1.2117 l 13.7143,0.8993 -9.7959,-2.824 -9.7959,-2.824 15.6734,1.0685 c 22.9387,1.5638 71.9834,9.1233 124.4082,19.1757 25.3225,4.8556 54.3407,10.2521 64.4851,11.9924 10.1443,1.7402 20.7994,4.3819 23.6779,5.8705 l 5.2336,2.7064 1.3017,109.1735 c 0.7159,60.0454 1.3017,179.4223 1.3017,265.282 0,146.2534 0.2164,156.2933 3.4286,159.0361 3.8158,3.2583 13.2182,8.6646 43.5918,25.0651 11.3143,6.1092 49.2245,27.4346 84.2449,47.3898 35.0204,19.9551 72.049,40.6934 82.2857,46.085 32.5859,17.163 84.4783,45.7764 107.7551,59.4161 12.3919,7.2613 25.9861,14.3098 30.2094,15.6633 19.8936,6.3754 64.2162,5.2895 69.8859,-1.7123 z m -501.7279,-821.3296 c -90.2215,-2.8566 -165.536,-5.9029 -193.9592,-7.8452 -58.6291,-4.0064 -175.3499,-28.3223 -252.7347,-52.651 -21.0123,-6.6059 -50.547,-15.5578 -65.6327,-19.8931 -15.0857,-4.3352 -37.1265,-10.8816 -48.9796,-14.5475 -54.409,-16.8277 -116.5934,-31.3832 -155.7551,-36.4576 -28.7294,-3.7226 -82.1104,-2.7808 -116.5714,2.0566 -36.9949,5.1931 -86.1237,12.8129 -103.2119,16.008 -11.4573,2.1422 -13.6898,2.054 -17.9035,-0.7069 -8.1595,-5.3463 -9.9714,-18.4727 -8.2942,-60.088 0.8052,-19.9782 2.0395,-52.0449 2.7429,-71.2593 1.1192,-30.5702 1.7226,-35.2594 4.8297,-37.5298 4.1903,-3.0619 17.8241,-6.6695 55.2968,-14.6318 15.1254,-3.2139 31.4311,-7.2302 36.2348,-8.925 14.6337,-5.1631 68.5554,-20.0317 84.5902,-23.3253 17.6883,-3.6333 80.1024,-4.2601 108.3275,-1.088 34.5819,3.8865 94.9562,22.3846 139.3039,42.6813 13.8971,6.3603 27.3887,12.2334 29.9812,13.0513 2.5926,0.8179 19.3436,8.9029 37.2245,17.9667 35.0515,17.7676 46.9763,21.094 65.8169,18.3594 10.8809,-1.5793 60.3081,-17.3769 95.0204,-30.3697 12.3918,-4.6383 31.586,-11.1304 42.6537,-14.427 11.0677,-3.2966 20.8583,-6.4482 21.757,-7.0036 3.0144,-1.863 48.0458,-13.3244 66.8546,-17.0158 35.4725,-6.9619 46.7987,-7.7571 82.4735,-5.7907 38.9911,2.1493 50.9248,4.3569 95.8122,17.724 17.7796,5.2946 38.498,11.125 46.0408,12.9564 16.7147,4.0584 23.6947,7.4013 26.5349,12.7081 3.2425,6.0588 7.9275,90.9565 6.7483,122.2886 -0.5678,15.0857 -1.9646,53.8687 -3.104,86.1845 -1.2282,34.8344 -2.9057,59.7609 -4.1204,61.2245 -2.252,2.7134 -3.0849,2.7171 -77.9771,0.3459 z m -737.1078,-326.4609 c -2.944,-0.447 -8.2338,-0.456 -11.7551,-0.02 -3.5213,0.436 -1.1126,0.8018 5.3527,0.8128 6.4653,0.011 9.3464,-0.3458 6.4024,-0.7928 z m 32.3506,-1.9909 c -4.5471,-0.4109 -12.4818,-0.4158 -17.6327,-0.011 -5.1509,0.4049 -1.4305,0.7411 8.2674,0.7471 9.698,0.01 13.9123,-0.3253 9.3653,-0.7362 z m -376.3742,149.8026 c -12.1679,-3.8937 -24.5896,-17.41 -32.8446,-35.7391 -9.093,-20.1897 -12.3362,-21.9076 -26.4162,-13.9929 -13.8581,7.79 -23.3692,7.1507 -32.7193,-2.1994 -17.369,-17.369 -18.8006,-52.8207 -2.8124,-69.648 11.8461,-12.4678 20.7631,-13.8537 33.7198,-5.2406 4.8731,3.2395 11.4487,5.8646 14.7019,5.8692 5.4965,0.01 6.2492,-0.9307 11.3852,-14.1957 10.9577,-28.301 22.4113,-40.4632 42.0673,-44.6697 37.3235,-7.9875 65.0701,29.2906 65.0701,87.423 0,49.3307 -15.8969,84.2618 -41.855,91.9705 -11.1498,3.3112 -20.8475,3.4465 -30.2968,0.4227 z m 1256.7401,0.467 c -16.5679,-4.9633 -31.4215,-22.9257 -38.8328,-46.9604 -3.8198,-12.3873 -4.531,-18.9996 -4.531,-42.1225 0,-23.7099 0.6249,-29.2383 4.609,-40.7766 7.1584,-20.7313 18.7193,-36.5063 31.4974,-42.9785 12.1785,-6.1685 18.75,-6.6313 33.2057,-2.3384 16.7773,4.9823 31.2369,20.8066 37.4937,41.0323 5.1263,16.5714 13.9297,19.0894 27.3983,7.8367 6.4022,-5.3489 9.947,-6.8571 16.1166,-6.8571 6.6935,0 9.188,1.2798 16.23,8.3265 6.7245,6.729 8.7795,10.538 10.7109,19.853 4.2081,20.2953 -2.1915,47.4571 -13.2266,56.1373 -7.7891,6.1269 -20.5424,5.1978 -29.703,-2.1639 -5.9971,-4.8194 -8.9829,-5.8869 -15.0688,-5.3877 -7.3195,0.6004 -7.7483,1.0411 -12.0413,12.3776 -6.8441,18.0731 -10.1906,23.8281 -18.8306,32.3826 -11.6141,11.4991 -29.8016,16.2004 -45.0275,11.6391 z M 894.39177,2926.6074 c 2.6711,-10.3079 1.0258,-2321.6485 -1.6545,-2324.3287 -2.8942,-2.8942 -8.8532,-0.9717 -14.6931,4.7403 -9.2145,9.0127 -49.90573,45.5163 -58.93873,52.8733 -6.2276,5.0721 -9.9223,9.895 -11.2544,14.6906 -2.2128,7.9666 -2.5506,2168.8953 -0.3402,2176.3132 1.8983,6.3705 78.43193,83.2395 82.16123,82.5213 1.7107,-0.3294 3.8345,-3.3939 4.7197,-6.81 z m 2106.29743,-28.5585 c 19.3061,-19.6653 36.7733,-38.4 38.8161,-41.6326 3.6344,-5.7515 3.7142,-29.1538 3.7214,-1091.1366 0.01,-1075.9604 -0.026,-1085.3274 -3.8545,-1093.2364 -2.447,-5.0549 -12.3157,-15.5817 -26.9387,-28.7353 -31.3867,-28.2326 -53.4471,-46.8102 -55.5858,-46.8102 -1.0599,0 -1.7776,287.5794 -1.7785,712.6531 -8e-4,391.9592 -0.573,903.9674 -1.2715,1137.7959 -0.6985,233.8286 -0.605,439.0286 0.2078,456.0001 l 1.4778,30.8571 h 5.0519 c 3.963,0 12.6182,-7.707 40.154,-35.7551 z M 261.1931,1480.0897 c 0,-1.0776 -0.93367,-1.9592 -2.07481,-1.9592 -1.14115,0 -1.52993,0.8816 -0.86397,1.9592 0.66597,1.0775 1.59963,1.9591 2.07481,1.9591 0.47518,0 0.86397,-0.8816 0.86397,-1.9591 z m 137.14286,-436.898 c 0,-1.0776 -0.93367,-1.9592 -2.07481,-1.9592 -1.14115,0 -1.52993,0.8816 -0.86397,1.9592 0.66596,1.0775 1.59963,1.9592 2.07481,1.9592 0.47518,0 0.86397,-0.8817 0.86397,-1.9592 z M 2876.1475,610.7019 c -0.4489,-2.9633 -0.8162,-0.5388 -0.8162,5.3878 0,5.9265 0.3673,8.351 0.8162,5.3877 0.4489,-2.9633 0.4489,-7.8122 0,-10.7755 z"
       id="path1" />
  </g>
</svg>
